# xmcd CD database file
# Copyright (C) 1997 Ti Kan
# 
# Track frame offsets:
#     150
#     21075
#     39207
#     43195
#     56847
#     77695
#     94222
#     110165
#     125487
#     148350
#     171027
#     192895
#     211325
#     231367
#     242880
# 
# Disc length: 3588 seconds
# 
# Revision: 1
# Processed by: cddbd v1.4b41PL1 Copyright (c) Steve Scherf et al.
# Submitted via: DiscPlay 4.0.4
# 
DISCID=da0e020f
DTITLE=Blind Mississippi Morris - You Know I Like That
DYEAR=1900
DGENRE=
TTITLE0=You Know I Like That
TTITLE1=Nobody Ever Gives Me What I Want
TTITLE2=The Woman I'm Lovin'
TTITLE3=Good Evening
TTITLE4=Killing Kind
TTITLE5=Hwy 61
TTITLE6=Funk N' See
TTITLE7=Going Back To Louisianna
TTITLE8=Junkyard Dog
TTITLE9=When a Woman Get's In Trouble
TTITLE10=Lover's Moon
TTITLE11=Mean St.
TTITLE12=Second Hand Store
TTITLE13=Beale St. Tonight
TTITLE14=Medley
EXTD=
EXTT0=
EXTT1=
EXTT2=
EXTT3=
EXTT4=
EXTT5=
EXTT6=
EXTT7=
EXTT8=
EXTT9=
EXTT10=
EXTT11=
EXTT12=
EXTT13=
EXTT14=
PLAYORDER=
